<?xml version="1.0"?><svg width="640" height="480" xmlns="http://www.w3.org/2000/svg">
 <title>camera purple</title>
 <g>
  <title>Layer 1</title>
  <g id="layer1">
   <path d="m263.605682,74.181084c-16.842316,0 -30.720901,13.786804 -30.720901,30.517647l0,20.345139l-10.24025,0c0,-11.095154 -9.311386,-20.345139 -20.480469,-20.345139l-10.240219,0c-11.169067,0 -20.480484,9.249985 -20.480484,20.345139c-33.861542,0 -61.441635,27.397797 -61.441635,61.035446l0,84.877472l0,42.279572c0,33.637726 27.580093,61.035522 61.441635,61.035522l117.954956,0c24.083405,30.328918 61.299744,49.908997 103.106598,49.90921c43.238037,0 81.546387,-20.964752 105.506683,-53.088104c24.400208,-8.087555 42.081177,-30.944824 42.081177,-57.856628l0,-42.279572l0,-84.877472c0,-33.63765 -27.580139,-61.035446 -61.441681,-61.035446l-71.681854,0l0,-20.345139c0,-16.730843 -13.87851,-30.517647 -30.720734,-30.517647l-112.642822,0zm0,20.345253l112.642822,0c5.850311,0 10.240265,4.360794 10.240265,10.172394l0,40.690384l92.162323,0c22.869598,0 40.961029,17.971878 40.961029,40.690201l0,39.513947c-6.91748,-6.172409 -15.295715,-10.666626 -24.480591,-13.224335c-24.098511,-29.959885 -61.117188,-49.241516 -102.626617,-49.241516c-9.401367,0 -18.545074,1.018753 -27.392822,2.892929c-8.138306,-2.179825 -16.636932,-3.496964 -25.472504,-3.496964c-36.102295,0 -67.743347,19.003601 -85.57016,47.397842l-82.626068,0c-15.738983,0 -30.075058,5.958847 -40.961044,15.672043l0,-39.513947c0,-22.718323 18.091415,-40.690201 40.961044,-40.690201l81.921997,0l0,-40.690384c0,-5.8116 4.390076,-10.172394 10.240326,-10.172394zm35.84082,20.345024c-8.332428,0 -15.360321,6.981407 -15.360321,15.258781c0,8.277588 7.027893,15.258972 15.360321,15.258972l40.96106,0c8.332611,0 15.360413,-6.981384 15.360413,-15.258972c0,-8.277374 -7.027802,-15.258781 -15.360413,-15.258781l-40.96106,0zm40.193085,57.824699c1.064789,0 2.081665,0.151733 3.136139,0.190857c-47.843536,19.526917 -81.666168,66.291702 -81.666168,120.767319c0,5.237366 0.385101,10.371613 0.992035,15.449646c-8.260101,-13.544373 -13.088318,-29.371063 -13.088318,-46.380615c0,-49.750443 40.5448,-90.027206 90.626312,-90.027206zm52.865326,6.930008c63.456604,0 114.787018,50.990952 114.787018,114.028168c-0.000122,63.03714 -51.330414,114.059906 -114.787018,114.059906c-63.456665,0 -114.818939,-51.022766 -114.818939,-114.059906c0,-63.037216 51.362274,-114.028168 114.818939,-114.028168zm0,15.16362c-54.875702,0 -99.522522,44.351563 -99.522522,98.864548c0,54.512909 44.64682,98.864746 99.522522,98.864746c54.87561,0 99.522552,-44.351837 99.522552,-98.864746c0,-54.512985 -44.646851,-98.864548 -99.522552,-98.864548zm0,10.172501c49.335022,0 89.282288,39.683029 89.282288,88.692047c0,3.108002 -0.166565,6.16214 -0.480072,9.187225c-23.435455,-22.486786 -55.110687,-36.525879 -90.242218,-36.525879c-33.70816,0 -64.344452,12.87146 -87.490173,33.760132c-0.154175,-2.131989 -0.352081,-4.250244 -0.352081,-6.421478c0,-49.009018 39.947205,-88.692047 89.282257,-88.692047z" id="rect17472" stroke-dashoffset="0" stroke-miterlimit="4" stroke-linecap="round" stroke-width="20" fill-rule="evenodd" fill="#bfbfbf"/>
  </g>
 </g>
</svg>